<svg width="132" height="132" viewBox="0 0 132 132" fill="none" xmlns="http://www.w3.org/2000/svg">
<path d="M125.52 55.2692C125.341 54.2962 125.141 53.3323 124.918 52.3781L119.068 53.7023C117.826 48.3836 115.827 43.4128 113.208 38.8845L118.407 35.9142C117.412 34.1953 116.338 32.5339 115.189 30.9343L110.313 34.404C107.177 30.0372 103.425 26.1798 99.2075 22.9368L102.856 18.1989C101.289 16.994 99.6638 15.8656 97.9875 14.8179L94.8217 19.8907C90.3115 17.0719 85.3869 14.9021 80.1991 13.4862L81.7497 7.70645C79.8503 7.18809 77.9189 6.7606 75.9615 6.42822L74.9903 12.336C69.8336 11.4603 64.478 11.3187 59.0591 12.0051L58.265 6.0599C57.2931 6.18301 56.3199 6.33009 55.3459 6.50151C54.372 6.67293 53.4074 6.86694 52.4525 7.08293L53.8165 12.9279C48.4924 14.1322 43.5214 16.0915 38.9971 18.6711L35.9913 13.4633C34.2739 14.4425 32.6147 15.5019 31.0178 16.6357L34.5214 21.5259C30.1595 24.6225 26.312 28.3363 23.083 32.5173L18.3157 28.8407C17.1156 30.3947 15.9925 32.0068 14.9506 33.6709L20.0513 36.8689C17.2472 41.3478 15.0972 46.244 13.7056 51.4077L7.90384 49.8174C7.39411 51.7088 6.97586 53.6329 6.65334 55.5837L12.5805 56.5957C11.7309 61.7346 11.6201 67.0767 12.342 72.4869L6.38751 73.2404C6.51703 74.211 6.67065 75.1832 6.84876 76.1562C7.02686 77.1292 7.22762 78.0931 7.45043 79.0473L13.3005 77.7231C14.5424 83.0418 16.5409 88.0126 19.1601 92.541L13.9618 95.5112C14.9561 97.2302 16.0306 98.8915 17.1793 100.491L22.0549 97.0214C25.191 101.388 28.9433 105.246 33.1608 108.489L29.5128 113.226C31.0798 114.431 32.7045 115.56 34.3809 116.608L37.5466 111.535C42.0569 114.354 46.9814 116.523 52.1693 117.939L50.6187 123.719C52.518 124.237 54.4494 124.665 56.4069 124.997L57.378 119.089C62.5348 119.965 67.8904 120.107 73.3092 119.42L74.1034 125.366C75.0752 125.242 76.0485 125.095 77.0224 124.924C77.9964 124.753 78.961 124.559 79.9158 124.343L78.5519 118.498C83.8759 117.293 88.847 115.334 93.3713 112.754L96.3771 117.962C98.0944 116.983 99.7536 115.924 101.351 114.79L97.8469 109.9C102.209 106.803 106.056 103.089 109.285 98.9081L114.053 102.585C115.253 101.031 116.376 99.4186 117.418 97.7545L112.317 94.5565C115.121 90.0777 117.271 85.1814 118.663 80.0177L124.465 81.6081C124.974 79.7166 125.392 77.7925 125.715 75.8418L119.788 74.8297C120.637 69.6908 120.748 64.3488 120.026 58.9385L125.981 58.1851C125.851 57.2144 125.698 56.2423 125.52 55.2692Z" stroke="#B089D0" stroke-width="12" stroke-dasharray="5 15"/>
<path d="M66.9577 84.7886C63.075 84.7886 60.131 83.7646 58.1257 81.7166C56.1204 79.626 55.587 76.554 56.5257 72.5006L62.7337 45.3006L74.3817 42.2286L67.4697 72.2446C67.043 73.9086 67.2137 75.1673 67.9817 76.0206C68.7497 76.8313 69.923 77.2366 71.5017 77.2366C72.4404 77.2366 73.187 77.1513 73.7417 76.9806C74.339 76.81 74.8724 76.5966 75.3417 76.3406L74.5737 83.3166C73.4644 83.8713 72.2484 84.2553 70.9257 84.4686C69.6457 84.682 68.323 84.7886 66.9577 84.7886ZM53.6457 59.9566L55.5017 52.2126H80.3977L78.5417 59.9566H53.6457Z" fill="#1C2A33"/>
</svg>
